<svg xmlns="http://www.w3.org/2000/svg" xml:space="preserve" width="2000" height="1500" data-id="lg_6o8KkM8uX2aWktXNzJ" data-version="1"><path fill="#fff" stroke="transparent" d="M0 0h2000v1500H0z"/><g data-padding="20"><g transform="translate(-519.44 -386.051)scale(1.49375)"><path fill="#581381" d="M643.113 902.826V871.46h43.605V545.57c0-26.01 20.655-46.665 46.665-46.665h181.305c-3.825 15.3-6.12 31.365-6.12 48.195 0 5.355 0 9.945.765 15.3H749.448v309.06h162.18v3.06c0 9.945 7.65 17.595 17.595 17.595h88.74c9.945 0 17.595-7.65 17.595-17.595v-3.06h162.18V739.116h41.31c7.65 0 15.3-.765 22.95-1.53v133.11h43.605v31.365c0 28.305-22.95 51.255-51.255 51.255h-559.98c-28.305.765-51.255-22.185-51.255-50.49M946.818 547.1c0-84.15 68.85-153 153-153h138.465c84.15 0 153 68.85 153 153s-68.85 153-153 153h-103.275l-70.38 70.38c-4.59 4.59-13.005 1.53-13.005-5.355V692.45c-61.2-20.655-104.805-77.265-104.805-145.35m91.035.765a62.35 62.35 0 0 0 62.73 62.73 62.73 62.73 0 0 0 44.37-18.36l4.59-4.59-19.89-19.89-4.59 4.59c-6.885 6.885-15.3 9.945-24.48 9.945s-17.595-3.825-24.48-9.945c-6.885-6.885-9.945-15.3-9.945-24.48s3.825-17.595 9.945-24.48c6.885-6.885 15.3-9.945 24.48-9.945s17.595 3.825 24.48 9.945l24.48 24.48 44.37 44.37a61.2 61.2 0 0 0 44.37 18.36 62.35 62.35 0 0 0 62.73-62.73 62.35 62.35 0 0 0-62.73-62.73 62.73 62.73 0 0 0-44.37 18.36l-5.355 5.355 19.89 19.89 5.355-5.355c6.885-6.885 15.3-9.945 24.48-9.945s17.595 3.825 24.48 9.945c6.885 6.885 9.945 15.3 9.945 24.48s-3.825 17.595-9.945 24.48c-6.885 6.885-15.3 9.945-24.48 9.945s-17.595-3.825-24.48-9.945l-9.945-9.945-58.905-58.905a61.2 61.2 0 0 0-44.37-18.36 62.35 62.35 0 0 0-62.73 62.73M858.368 1080.91v15.23h-69.5q-1.64 0-3.04-.59-1.41-.58-2.44-1.61-1.02-1.02-1.61-2.43-.58-1.4-.58-3.05v-76.34h15.23v68.79Zm89.06-68.79v76.34q0 1.65-.59 3.05-.58 1.41-1.64 2.43-1.05 1.03-2.46 1.61-1.41.59-2.99.59h-34.33q-4.87 0-9.85-1.05-4.98-1.06-9.64-3.26-4.65-2.19-8.76-5.59-4.1-3.4-7.17-8.06-3.08-4.66-4.84-10.66-1.76-6.01-1.76-13.39v-42.01h15.24v42.01q0 6.44 1.79 10.9 1.78 4.45 4.54 7.44 2.75 2.99 6.03 4.69t6.24 2.52 5.22 1.02q2.25.21 2.96.21h26.77v-68.79Zm101.54 35.15v13.71q0 7.68-2.67 14.13-2.66 6.44-7.35 11.1t-11.13 7.29q-6.45 2.64-14.01 2.64h-41.13q-1.64 0-3.05-.59-1.4-.58-2.43-1.61-1.02-1.02-1.61-2.43-.58-1.4-.58-3.05v-68.67q0-1.58.58-2.99.59-1.4 1.61-2.46 1.03-1.05 2.43-1.64 1.41-.58 3.05-.58h41.13q7.56 0 14.01 2.63 6.44 2.64 11.13 7.3t7.35 11.13q2.67 6.48 2.67 14.09m-15.23 13.71v-13.71q0-4.45-1.44-8.14-1.43-3.69-4.07-6.3t-6.3-4.04q-3.66-1.44-8.12-1.44h-33.57v53.56h33.57q4.46 0 8.12-1.44 3.66-1.43 6.3-4.04t4.07-6.27q1.44-3.66 1.44-8.18m99.26-14.53v15.35h-48.1v-15.35Zm6.86 34.46v15.23h-54.96q-3.17 0-6.92-1.11-3.75-1.12-6.94-3.66-3.19-2.55-5.33-6.63-2.14-4.07-2.14-9.99v-54.96q0-1.58.59-2.99.58-1.4 1.61-2.46 1.02-1.05 2.43-1.64 1.41-.58 3.05-.58h68.61v15.23h-61.05v47.4q0 2.99 1.58 4.57 1.58 1.59 4.63 1.59Zm81.79-68.78h16.99l-39.79 81.03q-.93 1.88-2.78 3.02t-4.07 1.14q-2.17 0-4.02-1.14-1.84-1.14-2.84-3.02l-39.72-81.03h17.05l29.53 60.52Z"/><rect width="508.02" height="135.6" x="351.288" y="298.411" fill="none" rx="0" ry="0" transform="translate(400.5 692.96)"/></g><path fill="transparent" stroke="transparent" stroke-width="1.535" d="M425.99 187.5h1148.02v1125H425.99z"/></g></svg>